<svg xmlns="http://www.w3.org/2000/svg" viewBox="0 0 128 96">
  <rect width="128" height="96" rx="8" fill="#050806"/>

  <!-- grid -->
  <line x1="0" y1="72" x2="128" y2="72" stroke="#0a1a0a" stroke-width="0.5"/>
  <line x1="0" y1="48" x2="128" y2="48" stroke="#0a1a0a" stroke-width="0.5"/>
  <line x1="0" y1="24" x2="128" y2="24" stroke="#0a1a0a" stroke-width="0.5"/>
  <line x1="32" y1="0" x2="32" y2="96" stroke="#0a1a0a" stroke-width="0.5"/>
  <line x1="64" y1="0" x2="64" y2="96" stroke="#0a1a0a" stroke-width="0.5"/>
  <line x1="96" y1="0" x2="96" y2="96" stroke="#0a1a0a" stroke-width="0.5"/>

  <!-- fill -->
  <polygon
    points="
      0,96
      0,84 2,83 4,84 6,82 8,83 10,81 12,80 14,78
      16,76 18,70 20,58 22,38 24,16 26,8 28,5 30,7 32,18 34,42
      36,62 38,72 40,75 42,77 44,76 46,78 48,77 50,79
      52,78 54,77 56,76 58,70 60,55 62,32 64,12 66,8 68,5 70,9 72,22 74,45
      76,64 78,73 80,76 82,78 84,77 86,79 88,78 90,80
      92,79 94,81 96,80 98,82 100,81 102,82 104,83 106,82
      108,83 110,82 112,83 114,82 116,83 118,82 120,83 122,82 124,83 126,82 128,83
      128,96
    "
    fill="#001500" opacity="0.95"/>

  <!-- spectrum line -->
  <polyline
    points="
      0,84 2,83 4,84 6,82 8,83 10,81 12,80 14,78
      16,76 18,70 20,58 22,38 24,16 26,8 28,5 30,7 32,18 34,42
      36,62 38,72 40,75 42,77 44,76 46,78 48,77 50,79
      52,78 54,77 56,76 58,70 60,55 62,32 64,12 66,8 68,5 70,9 72,22 74,45
      76,64 78,73 80,76 82,78 84,77 86,79 88,78 90,80
      92,79 94,81 96,80 98,82 100,81 102,82 104,83 106,82
      108,83 110,82 112,83 114,82 116,83 118,82 120,83 122,82 124,83 126,82 128,83
    "
    fill="none"
    stroke="#00ff41"
    stroke-width="0.5"
    stroke-linejoin="miter"
    stroke-linecap="square"/>

  <!-- peak glows -->
  <line x1="28" y1="5" x2="28" y2="84" stroke="#00ff41" stroke-width="0.3" opacity="0.25"/>
  <line x1="68" y1="5" x2="68" y2="84" stroke="#00ff41" stroke-width="0.3" opacity="0.25"/>
</svg>
